<svg version="1" xmlns="http://www.w3.org/2000/svg" width="933.333" height="933.333" viewBox="0 0 700.000000 700.000000"><path d="M338.7 87.6c-.1.1-3.8.4-8.2.8-34.4 2.4-59 12.1-77 30.1-4.6 4.6-9.5 10.3-9.5 10.9 0 .3-1.2 2.2-2.6 4.3-4.6 6.8-11.7 23.6-14 33.4-1.8 7.5-4.4 21.2-5 26.4-.4 3.3-.8 7.1-1 8.5-.5 3.7-1.4 16.3-1.9 26-.5 10.4-.6 67.3-.1 71.5.2 1.6.6 5.7 1 9 4.2 35.6 23.5 78.8 47.8 106.5 10.6 12.1 25.1 24.6 34.2 29.5 2.6 1.4 3.6 2.7 3.7 4.5.3 8.3.1 33.2-.4 33.6-.3.3-2.4.7-4.8.9-8 .8-22.4 2.5-25.4 3-5.6.9-9 1.5-13 2-2.2.3-6.2 1-9 1.6-2.7.6-6.3 1.3-8 1.6-5.2.8-33.8 8.2-42.1 10.9-4.3 1.4-8.3 2.7-8.9 2.8-4.9 1.3-31.6 12.1-40 16.2-30.6 14.9-50.7 28.5-69.6 47.4-15.7 15.6-25.5 29.6-32.5 46.2-5.9 13.9-10.6 37.9-8 40.5.8.8 610.1.7 611.5-.1.6-.4 1-1 .7-1.4-.2-.4-.7-4.1-1-8.2-1.9-20.7-11.6-43.2-27.3-63-11.7-14.7-35.7-35-55.5-46.7-16.1-9.6-43.8-23.3-47-23.3-.4 0-2.7-.9-5.1-1.9-9.1-4.1-33-11.6-51.7-16.1-12-2.9-41.1-8.3-51.5-9.4-11.8-1.4-14.2-1.7-18.5-2.2-2.4-.3-4.7-.9-5-1.4-.4-.6-.4-21.4-.1-33.6.1-1.2 1.2-2.6 2.7-3.2 8.2-3.8 29.4-22.7 39.4-35.1 19.7-24.6 36.5-60.4 41.4-88.6.3-1.7 1-5.3 1.5-8 .5-2.8.9-5.7.9-6.5.1-.8.4-3.3.6-5.5.6-4.5.7-58.5.1-71.5-.4-10.8-1.6-27.7-2-30-.2-.9-.6-4.1-1-7-.7-5.1-.9-6.7-2-12-.2-1.4-.7-3.9-1-5.5-1.1-7-6.9-24.5-10.7-32.4-14.7-30.3-40-47-81.3-53.5-8.2-1.3-42.8-2.9-43.8-2z"/></svg>